<?xml version="1.0" encoding="utf-8" ?><svg xmlns="http://www.w3.org/2000/svg" xmlns:xlink="http://www.w3.org/1999/xlink" width="1563" height="1563" viewBox="0 0 1563 1563"><defs><linearGradient id="gradient_0" gradientUnits="userSpaceOnUse" x1="295.27017" y1="727.15759" x2="497.03903" y2="442.51431"><stop offset="0" stop-color="#228449"/><stop offset="1" stop-color="#32C468"/></linearGradient></defs><path fill="url(#gradient_0)" transform="scale(1.52637 1.52637)" d="M117.542 605.713C116.867 594.852 117.53 577.634 118.566 566.85C124.581 506.798 154.231 451.602 200.981 413.432C258.632 365.99 337.038 352.453 405.667 381.983C458.577 404.749 489.497 445.32 525.119 488.273C547.021 514.681 569.801 540.146 591.438 566.502C594.762 571.267 623.021 605.29 626.934 608.113C635.576 618.877 645.754 629.74 654.62 640.624C657.884 644.631 669.016 658.388 672.217 661.495C680.036 670.497 687.324 678.518 694.856 687.964C698.827 692.558 704.429 699.075 707.936 703.971L571.816 703.941L417.802 704.024C411.467 697.605 403.925 688.228 398.009 681.248C392.934 675.259 386.136 667.766 381.507 661.63C375.706 655.271 369.942 647.141 364.437 641.356C364.794 657.21 364.479 674.202 364.534 690.159C364.76 713.081 364.83 736.004 364.744 758.927C364.565 777.293 363.425 796.447 360.012 814.521C350.505 862.573 326.72 906.638 291.766 940.955C242.915 988.743 185.733 1012.73 117.515 1011.99L117.394 762.535C117.402 710.678 116.778 657.438 117.542 605.713Z"/><path fill="#1B673A" transform="scale(1.52637 1.52637)" d="M117.542 605.713C119.63 604.19 123.002 588.412 124.34 584.827C149.72 516.84 230.824 501.071 283.504 548.765C296.273 560.326 304.969 570.948 315.982 583.97L347.332 620.946L359.899 635.815C360.542 636.585 364.143 641.111 364.437 641.356C364.794 657.21 364.479 674.202 364.534 690.159C364.76 713.081 364.83 736.004 364.744 758.927C364.565 777.293 363.425 796.447 360.012 814.521C350.505 862.573 326.72 906.638 291.766 940.955C242.915 988.743 185.733 1012.73 117.515 1011.99L117.394 762.535C117.402 710.678 116.778 657.438 117.542 605.713Z"/><path fill="#A9DFA2" transform="scale(1.52637 1.52637)" d="M381.507 661.63C390.099 660.96 405.342 661.412 414.253 661.417L475.704 661.436L672.217 661.495C680.036 670.497 687.324 678.518 694.856 687.964C698.827 692.558 704.429 699.075 707.936 703.971L571.816 703.941L417.802 704.024C411.467 697.605 403.925 688.228 398.009 681.248C392.934 675.259 386.136 667.766 381.507 661.63Z"/><path fill="#A9DFA2" transform="scale(1.52637 1.52637)" d="M694.474 618.947C694.417 591.801 693.293 558.996 695.781 532.615C701.399 474.703 726.855 420.51 767.839 379.21C812.538 334.237 876.649 304.766 940.388 304.501C940.935 304.497 941.481 304.5 942.028 304.51L941.953 699.038C942.073 749.255 940.974 785.716 917.182 831.732C912.244 841.306 896.349 868.356 888.267 874.721C880.679 884.711 865.583 898.652 855.793 906.432C812.319 941.646 756.415 957.71 700.879 950.945C648.607 944.946 595.27 915.648 562.513 874.463C558.372 870.335 552.818 863.568 548.904 858.992C541.32 850.12 533.826 841.17 526.426 832.144C514.418 818.174 502.225 803.172 490.044 789.536C478.241 775.216 465.828 761 453.921 746.627C450.099 742.726 444.275 735.243 440.513 730.802C432.877 721.932 425.306 713.006 417.802 704.024L571.816 703.941L707.936 703.971C704.429 699.075 698.827 692.558 694.856 687.964L694.474 618.947Z"/><path fill="#A9DFA2" transform="scale(1.52637 1.52637)" d="M941.953 699.038C942.073 749.255 940.974 785.716 917.182 831.732C912.244 841.306 896.349 868.356 888.267 874.721C880.679 884.711 865.583 898.652 855.793 906.432C812.319 941.646 756.415 957.71 700.879 950.945C648.607 944.946 595.27 915.648 562.513 874.463C558.372 870.335 552.818 863.568 548.904 858.992C541.32 850.12 533.826 841.17 526.426 832.144C514.418 818.174 502.225 803.172 490.044 789.536C478.241 775.216 465.828 761 453.921 746.627C450.099 742.726 444.275 735.243 440.513 730.802C432.877 721.932 425.306 713.006 417.802 704.024L571.816 703.941L707.936 703.971C710.863 706.487 719.937 717.444 722.799 720.939C728.711 728.16 739.612 739.208 744.597 746.47L745.231 747.034C753.752 754.723 756.595 760.862 767.947 769.377C774.444 774.236 781.298 778.598 788.45 782.427C791.317 783.958 799.316 787.862 801.678 789.519C817.477 795.276 827.776 797.638 844.721 797.327C871.444 796.837 896.17 784.937 914.318 765.356C919.553 759.735 924.083 753.497 927.805 746.778C933.069 737.401 941.013 716.109 940.652 705.486L941.953 699.038Z"/><path fill="#A9DFA2" transform="scale(1.52637 1.52637)" d="M417.802 704.024L571.816 703.941L707.936 703.971C710.863 706.487 719.937 717.444 722.799 720.939C728.711 728.16 739.612 739.208 744.597 746.47L745.231 747.034C753.752 754.723 756.595 760.862 767.947 769.377C774.444 774.236 781.298 778.598 788.45 782.427C791.317 783.958 799.316 787.862 801.678 789.519L635.78 789.486L490.044 789.536C478.241 775.216 465.828 761 453.921 746.627C450.099 742.726 444.275 735.243 440.513 730.802C432.877 721.932 425.306 713.006 417.802 704.024Z"/><path fill="#51AB67" transform="scale(1.52637 1.52637)" d="M417.802 704.024L571.816 703.941C575.672 709.361 599.646 743.432 600.192 746.493L503.76 746.485C489.734 746.48 467.479 745.798 453.921 746.627C450.099 742.726 444.275 735.243 440.513 730.802C432.877 721.932 425.306 713.006 417.802 704.024Z"/><path fill="#2FBB63" transform="scale(1.52637 1.52637)" d="M707.936 703.971C710.863 706.487 719.937 717.444 722.799 720.939C728.711 728.16 739.612 739.208 744.597 746.47L600.192 746.493C599.646 743.432 575.672 709.361 571.816 703.941L707.936 703.971Z"/><path fill="#51AB67" transform="scale(1.52637 1.52637)" d="M562.513 874.463L676.713 874.359C696.354 874.351 717.903 873.904 737.418 874.477C787.47 874.154 837.524 874.224 887.576 874.686L888.267 874.721C880.679 884.711 865.583 898.652 855.793 906.432C812.319 941.646 756.415 957.71 700.879 950.945C648.607 944.946 595.27 915.648 562.513 874.463Z"/><path fill="#2FBB63" transform="scale(1.52637 1.52637)" d="M737.418 874.477C787.47 874.154 837.524 874.224 887.576 874.686C884.026 875.9 881.227 874.455 877.603 875.894C872.972 877.732 868.466 880.152 863.912 882.235C854.137 886.774 843.827 890.055 833.227 892.002C806.652 897.022 777.657 892.899 753.066 882.14C748.615 880.192 741.301 877.138 737.418 874.477Z"/><path fill="#2FBB63" transform="scale(1.52637 1.52637)" d="M941.953 699.038C942.073 749.255 940.974 785.716 917.182 831.732C898.306 831.108 876.794 831.653 857.694 831.646L739.895 831.679C719.144 831.699 697.294 832.09 676.659 831.675C675.085 829.66 670.491 825.424 668.539 823.477C662.859 817.813 656.959 812.251 651.307 806.556C645.852 801.06 641.308 794.992 635.78 789.486L801.678 789.519C817.477 795.276 827.776 797.638 844.721 797.327C871.444 796.837 896.17 784.937 914.318 765.356C919.553 759.735 924.083 753.497 927.805 746.778C933.069 737.401 941.013 716.109 940.652 705.486L941.953 699.038Z"/><path fill="#51AB67" transform="scale(1.52637 1.52637)" d="M490.044 789.536L635.78 789.486C641.308 794.992 645.852 801.06 651.307 806.556C656.959 812.251 662.859 817.813 668.539 823.477C670.491 825.424 675.085 829.66 676.659 831.675L573.332 831.724L544.147 831.666C539.623 831.668 530.593 831.564 526.426 832.144C514.418 818.174 502.225 803.172 490.044 789.536Z"/><path fill="#51AB67" transform="scale(1.52637 1.52637)" d="M694.474 618.947L694.779 619.361C698.074 623.914 702.41 631.723 705.424 636.736C710.18 644.646 715.227 652.379 720.553 659.918C758.149 713.051 839.777 795.108 911.981 746.9C925.86 737.633 935.455 721.186 940.652 705.486C941.013 716.109 933.069 737.401 927.805 746.778C924.083 753.497 919.553 759.735 914.318 765.356C896.17 784.937 871.444 796.837 844.721 797.327C827.776 797.638 817.477 795.276 801.678 789.519C799.316 787.862 791.317 783.958 788.45 782.427C781.298 778.598 774.444 774.236 767.947 769.377C756.595 760.862 753.752 754.723 745.231 747.034L744.597 746.47C739.612 739.208 728.711 728.16 722.799 720.939C719.937 717.444 710.863 706.487 707.936 703.971C704.429 699.075 698.827 692.558 694.856 687.964L694.474 618.947Z"/><path fill="#A9DFA2" transform="scale(1.52637 1.52637)" d="M627.44 239.744C626.461 235.873 625.727 231.867 624.753 228.042C608.501 164.207 636.633 102.174 688.878 63.9413C746.927 21.4606 821.197 7.69717 891.878 4.77126C903.153 4.30454 914.627 3.50415 926.042 3.46969C926.115 9.02735 925.492 16.2484 925 21.8813C922.753 42.7903 920.428 65.4868 916.003 86.0131C903.26 145.117 879.937 201.93 831.679 240.738C798.226 267.642 762.822 279.628 720.364 283.78C709.168 284.874 695.274 284.632 684.693 286.928C677.519 288.486 670.088 296.148 665.671 301.939C639.183 344.45 628.181 404.094 627.458 453.719C627.118 477.055 627.596 500.652 627.384 524.019L627.204 524.145C624.619 524.108 598.204 503.405 594.82 499.973C592.809 497.932 591.413 497.2 591.069 494.217C591.075 470.578 591.763 446.641 589.467 423.115C588.476 412.965 585.22 403.923 582.626 394.199C575.799 380.829 575.202 375.377 561.902 364.853C551.065 356.278 537.01 354.778 523.447 352.187C491.033 345.993 465.289 334.606 441.386 311.179C409.759 280.183 394.243 236.755 387.971 193.721C386.648 184.643 385.069 171.588 385.04 162.44C384.669 155.817 384.614 151.535 384.861 144.976C472.022 145.521 608.194 186.143 601.19 296.953C600.736 304.139 598.796 311.927 597.028 318.935C588.26 309.195 579.353 299.052 570.109 289.799C547.748 267.511 523.006 247.749 496.327 230.868C491.027 227.452 477.455 218.68 472.068 216.423C473.068 217.746 484.362 226.028 486.725 227.89C493.165 233.034 499.498 238.31 505.719 243.716C537.271 270.956 566.768 301.491 589.041 337.012C592.999 343.324 597.019 351.544 600.506 358.274C602.085 353.513 603.505 348.683 605.038 343.884C636.322 245.932 707.154 164.919 789.628 105.72C796.32 100.917 803.241 96.6363 809.894 91.8769C728.425 130.906 681.899 167.056 627.44 239.744Z"/><path fill="#51AB67" transform="scale(1.52637 1.52637)" d="M665.671 301.939C665.103 296.797 670.579 289.874 673.346 285.588C680.243 274.802 692.577 266.115 705.205 263.413C720.593 260.12 736.024 258.343 751.463 254.366C768.285 249.934 784.447 243.296 799.529 234.626C875.736 191.55 907.18 105.649 922.779 24.4682C923.091 22.8437 923.718 22.5505 925 21.8813C922.753 42.7903 920.428 65.4868 916.003 86.0131C903.26 145.117 879.937 201.93 831.679 240.738C798.226 267.642 762.822 279.628 720.364 283.78C709.168 284.874 695.274 284.632 684.693 286.928C677.519 288.486 670.088 296.148 665.671 301.939Z"/><path fill="#51AB67" transform="scale(1.52637 1.52637)" d="M385.04 162.44C386.987 166.49 385.102 172.391 388.113 174.788C388.385 171.368 386.529 167.38 387.191 165C392.979 193.95 399.519 219.619 413.338 246.155C427.407 273.17 443.51 293.04 469.026 310.105C485.252 320.778 503.191 328.583 522.061 333.179C529.469 334.977 539.583 335.761 546.191 337.832C571.227 345.68 577.165 366.933 582.403 389.847C582.796 391.567 582.779 392.509 582.626 394.199C575.799 380.829 575.202 375.377 561.902 364.853C551.065 356.278 537.01 354.778 523.447 352.187C491.033 345.993 465.289 334.606 441.386 311.179C409.759 280.183 394.243 236.755 387.971 193.721C386.648 184.643 385.069 171.588 385.04 162.44Z"/><path fill="#51AB67" transform="scale(1.52637 1.52637)" d="M591.069 494.217C591.413 497.2 592.809 497.932 594.82 499.973C598.204 503.405 624.619 524.108 627.204 524.145L627.384 524.019L626.934 608.113C623.021 605.29 594.762 571.267 591.438 566.502L591.069 494.217Z"/></svg>