<?xml version="1.0" encoding="utf-8" ?><svg xmlns="http://www.w3.org/2000/svg" xmlns:xlink="http://www.w3.org/1999/xlink" width="1113" height="519" viewBox="0 0 1113 519"><clipPath id="cl_3"><rect x="-0.00010681152" y="-3.0517578e-05" width="1113" height="519"/></clipPath><g clip-path="url(#cl_3)"><path fill="#1B673A" transform="matrix(1.52675 0 0 1.52647 -218.325 -509.841)" d="M181.346 500.571C190.027 487.214 203.67 477.863 219.259 474.585C234.077 471.491 249.516 474.467 262.121 482.849C273.086 490.084 278.077 498.568 286.449 508.288C292.592 515.42 298.882 522.477 305.002 529.67C306.641 532.135 312.73 539.914 315.089 541.286C317.293 545.079 324.93 553.614 328.072 557.227C315.233 557.368 294.047 557.978 281.62 557.322L246.287 557.481C244.479 555.716 243.602 553.893 241.042 551.599C241.654 557.266 241.376 564.754 241.33 570.583C241.44 597.244 241.471 613.52 221.189 634.969C207.095 649.875 190.752 655.405 170.572 655.613C171.115 642.626 170.646 625.973 170.654 612.558L170.833 535.683C170.77 521.932 174.001 512.108 181.346 500.571Z"/><path fill="#2EB463" transform="matrix(1.52675 0 0 1.52647 -218.325 -509.841)" d="M181.346 500.571C190.027 487.214 203.67 477.863 219.259 474.585C234.077 471.491 249.516 474.467 262.121 482.849C273.086 490.084 278.077 498.568 286.449 508.288C292.592 515.42 298.882 522.477 305.002 529.67C306.641 532.135 312.73 539.914 315.089 541.286C317.293 545.079 324.93 553.614 328.072 557.227C315.233 557.368 294.047 557.978 281.62 557.322L246.287 557.481C244.479 555.716 243.602 553.893 241.042 551.599C231.29 540.294 221.095 523.869 206.776 518.73C193.937 514.122 176.837 521.264 172.762 534.729L170.833 535.683C170.77 521.932 174.001 512.108 181.346 500.571Z"/><path fill="#41A05F" transform="matrix(1.52675 0 0 1.52647 -218.325 -509.841)" d="M181.346 500.571L181.798 502.797L182.693 503.179C222.862 479.731 260.73 515.264 283.022 545.889C285.589 549.416 288.475 553.577 291.27 556.862C289.475 556.848 282.722 556.557 281.62 557.322L246.287 557.481C244.479 555.716 243.602 553.893 241.042 551.599C231.29 540.294 221.095 523.869 206.776 518.73C193.937 514.122 176.837 521.264 172.762 534.729L170.833 535.683C170.77 521.932 174.001 512.108 181.346 500.571Z"/><path fill="#165231" transform="matrix(1.52675 0 0 1.52647 -218.325 -509.841)" d="M172.762 534.729C176.837 521.264 193.937 514.122 206.776 518.73C221.095 523.869 231.29 540.294 241.042 551.599C241.654 557.266 241.376 564.754 241.33 570.583C238.536 570.451 233.596 561.447 231.6 558.664C220.873 543.707 198.379 520.414 178.43 533.685C176.318 535.09 174.781 537.135 172.385 538.364L171.984 537.737L172.762 534.729Z"/><path fill="#A9DDA3" transform="matrix(1.52675 0 0 1.52647 -218.325 -509.841)" d="M333.936 545.49C333.668 531.064 332.899 517.434 337.845 503.582C348.486 473.776 372.575 458.162 403.514 456.9C403.255 494.459 403.238 532.02 403.464 569.579C403.396 581.095 402.527 596.086 395.969 606.07C393.738 610.245 391.521 614.065 388.496 617.742C384.467 622.009 381.221 625.272 376.387 628.617C354.057 644.071 322.841 642.824 302.957 623.903C301.006 622.079 299.157 620.149 297.417 618.123C294.542 615.359 289.117 609.074 286.649 605.891C284.344 603.609 278.924 596.99 276.528 594.246C273.186 590.374 269.803 586.044 266.563 582.049L256.485 569.858C253.223 566.369 249.297 561.286 246.287 557.481L281.62 557.322C294.047 557.978 315.233 557.368 328.072 557.227C330.281 559.652 332.365 561.858 334.313 564.505C334.022 558.282 334.022 551.749 333.936 545.49Z"/><path fill="#2EB463" transform="matrix(1.52675 0 0 1.52647 -218.325 -509.841)" d="M328.072 557.227C330.281 559.652 332.365 561.858 334.313 564.505C335.493 566.235 336.636 567.786 337.891 569.464C339.242 571.038 347.468 580.111 347.666 581.261C345.825 581.488 344.693 581.547 342.835 581.591C344.8 581.716 346.733 581.867 348.703 581.875C352.307 585.797 354.587 588.154 359.121 590.959C360.544 591.839 362.896 593.086 364.048 593.963C367.525 594.907 371.501 595.667 375.091 595.696C382.721 595.789 390.07 592.82 395.494 587.452C398.767 584.153 401.781 579.239 401.774 574.474L403.464 569.579C403.396 581.095 402.527 596.086 395.969 606.07C393.738 610.245 391.521 614.065 388.496 617.742C384.467 622.009 381.221 625.272 376.387 628.617C354.057 644.071 322.841 642.824 302.957 623.903C301.006 622.079 299.157 620.149 297.417 618.123C294.542 615.359 289.117 609.074 286.649 605.891C284.344 603.609 278.924 596.99 276.528 594.246C273.186 590.374 269.803 586.044 266.563 582.049L256.485 569.858C253.223 566.369 249.297 561.286 246.287 557.481L281.62 557.322C294.047 557.978 315.233 557.368 328.072 557.227Z"/><path fill="#A9DDA3" transform="matrix(1.52675 0 0 1.52647 -218.325 -509.841)" d="M328.072 557.227C330.281 559.652 332.365 561.858 334.313 564.505C335.493 566.235 336.636 567.786 337.891 569.464C339.242 571.038 347.468 580.111 347.666 581.261C345.825 581.488 344.693 581.547 342.835 581.591L287.113 581.811C280.41 581.854 273.22 581.782 266.563 582.049L256.485 569.858C253.223 566.369 249.297 561.286 246.287 557.481L281.62 557.322C294.047 557.978 315.233 557.368 328.072 557.227Z"/><path fill="#41A05F" transform="matrix(1.52675 0 0 1.52647 -218.325 -509.841)" d="M256.485 569.858C269.77 570.497 286.571 569.931 300.183 569.875C302.808 573.455 306.025 577.618 308.312 581.348C305.114 581.334 289.039 581.013 287.113 581.811C280.41 581.854 273.22 581.782 266.563 582.049L256.485 569.858Z"/><path fill="#2EB463" transform="matrix(1.52675 0 0 1.52647 -218.325 -509.841)" d="M337.891 569.464C339.242 571.038 347.468 580.111 347.666 581.261C345.825 581.488 344.693 581.547 342.835 581.591L287.113 581.811C289.039 581.013 305.114 581.334 308.312 581.348C306.025 577.618 302.808 573.455 300.183 569.875C286.571 569.931 269.77 570.497 256.485 569.858C260.301 569.282 277.838 569.548 282.676 569.541L337.891 569.464Z"/><path fill="#41A05F" transform="matrix(1.52675 0 0 1.52647 -218.325 -509.841)" d="M386.621 618.017L388.496 617.742C384.467 622.009 381.221 625.272 376.387 628.617C354.057 644.071 322.841 642.824 302.957 623.903C301.006 622.079 299.157 620.149 297.417 618.123C312.555 617.571 330.388 617.994 345.658 618.038L386.621 618.017Z"/><path fill="#2EB463" transform="matrix(1.52675 0 0 1.52647 -218.325 -509.841)" d="M345.658 618.038L386.621 618.017C385.664 618.421 384.702 618.817 383.738 619.204C368.103 625.476 360.806 624.518 345.658 618.038Z"/><path fill="#A9DDA3" transform="matrix(1.52675 0 0 1.52647 -218.325 -509.841)" d="M293.116 605.822L366.688 605.754C371.776 605.75 392.229 605.309 395.969 606.07C393.738 610.245 391.521 614.065 388.496 617.742L386.621 618.017L345.658 618.038C330.388 617.994 312.555 617.571 297.417 618.123C294.542 615.359 289.117 609.074 286.649 605.891L293.116 605.822Z"/><path fill="#A9DDA3" transform="matrix(1.52675 0 0 1.52647 -218.325 -509.841)" d="M342.835 581.591C344.8 581.716 346.733 581.867 348.703 581.875C352.307 585.797 354.587 588.154 359.121 590.959C360.544 591.839 362.896 593.086 364.048 593.963C349.06 593.535 332.877 593.882 317.801 593.945C307.866 593.947 285.462 593.373 276.528 594.246C273.186 590.374 269.803 586.044 266.563 582.049C273.22 581.782 280.41 581.854 287.113 581.811L342.835 581.591Z"/><path fill="#41A05F" transform="matrix(1.52675 0 0 1.52647 -218.325 -509.841)" d="M276.528 594.246C285.462 593.373 307.866 593.947 317.801 593.945C321.601 598.091 324.753 601.665 329.008 605.371C325.145 605.367 294.762 604.999 293.116 605.822L286.649 605.891C284.344 603.609 278.924 596.99 276.528 594.246Z"/><path fill="#41A05F" transform="matrix(1.52675 0 0 1.52647 -218.325 -509.841)" d="M333.936 545.49L334.217 545.848C337.33 549.885 339.941 554.652 342.937 558.866C355.516 576.557 383.541 599.542 401.774 574.474C401.781 579.239 398.767 584.153 395.494 587.452C390.07 592.82 382.721 595.789 375.091 595.696C371.501 595.667 367.525 594.907 364.048 593.963C362.896 593.086 360.544 591.839 359.121 590.959C354.587 588.154 352.307 585.797 348.703 581.875C346.733 581.867 344.8 581.716 342.835 581.591C344.693 581.547 345.825 581.488 347.666 581.261C347.468 580.111 339.242 571.038 337.891 569.464C336.636 567.786 335.493 566.235 334.313 564.505C334.022 558.282 334.022 551.749 333.936 545.49Z"/><path fill="#A9DDA3" transform="matrix(1.52675 0 0 1.52647 -218.325 -509.841)" d="M314.892 438.348C309.924 421.949 313.428 405.836 325.763 393.747C344.487 375.396 374.029 371.325 399.113 371.501C399.062 376.485 398.542 381.454 397.562 386.341C394.876 406.136 388.002 426.756 371.517 439.133C358.152 449.167 348.042 450.043 332.024 450.585C329.497 452.258 328.795 452.798 326.638 454.916C311.597 476.782 316.799 494.389 315.223 517.515C311.368 515.869 308.551 512.142 304.621 510.47C304.591 499.433 305.763 489.956 301.516 479.808C297.56 473.467 295.169 471.092 287.481 470.094C262.188 466.81 248.022 446.416 246.439 421.311C246.001 417.784 245.954 415.051 245.879 411.486C273.488 411.905 314.371 424.437 306.788 459.879C299.846 452.857 293.88 446.855 285.908 440.846C281.981 437.938 278.843 435.791 274.709 433.187L274.516 433.354C278.067 436.755 281.041 438.973 284.651 442.089C294.234 450.853 301.296 459.472 307.016 471.277C317.377 441.461 332.048 423.039 355.882 403.557C357.992 402.095 360.089 400.616 362.175 399.121L362.291 398.329L362.688 398.712L362.663 398.159L363.415 397.941L363.374 398.072L362.821 398.035L362.604 398.688L361.919 398.411C359.927 399.333 357.333 400.859 355.351 401.943C338.751 410.675 326.219 423.732 314.892 438.348Z"/><path fill="#41A05F" transform="matrix(1.52675 0 0 1.52647 -218.325 -509.841)" d="M326.638 454.916C326.607 454.491 326.553 454.166 326.689 453.722C330.359 442.421 345.472 444.503 354.602 440.954C369.072 435.329 379.486 425.959 386.752 412.286C388.822 408.332 390.619 404.241 392.131 400.042C393.183 397.101 395.617 387.662 397.562 386.341C394.876 406.136 388.002 426.756 371.517 439.133C358.152 449.167 348.042 450.043 332.024 450.585C329.497 452.258 328.795 452.798 326.638 454.916Z"/><path fill="#41A05F" transform="matrix(1.52675 0 0 1.52647 -218.325 -509.841)" d="M246.439 421.311C247.915 423.271 249.249 427.315 249.932 429.716C254.24 444.881 264.143 457.8 279.581 462.688C289.65 465.876 301.575 465.353 301.516 479.808C297.56 473.467 295.169 471.092 287.481 470.094C262.188 466.81 248.022 446.416 246.439 421.311Z"/><path fill="#13182A" transform="matrix(1.52675 0 0 1.52647 -218.325 -509.841)" d="M444.161 471.239C459.133 471.638 483.923 469.197 497.214 473.181C514.592 478.389 516.779 503.903 496.802 511.742C498.503 512.39 500.323 513.078 501.913 513.963C506.247 516.405 509.398 520.51 510.636 525.328C512.564 532.588 510.917 538.619 507.275 544.836C506.93 545.21 506.579 545.579 506.223 545.943C497.486 554.821 482.326 553.035 470.746 552.973L443.675 552.928L443.595 544.072L453.851 544.074C454.044 540.819 454.012 537.054 453.981 533.783C453.811 515.827 454.35 497.685 453.767 479.749C450.341 479.684 446.915 479.648 443.489 479.643C443.587 476.969 443.925 473.934 444.161 471.239ZM463.612 544.588C473.565 543.493 488.93 546.394 496.901 540.752C500.586 536.537 501.264 533.865 500.687 528.216C499.038 512.069 475.743 515.798 463.611 515.911L463.612 544.588ZM463.725 507.074C472.994 507.1 489.323 508.641 496.391 503.236C499.844 499.534 500.821 496.606 500.406 491.454C499.177 476.176 475.01 479.62 463.849 479.756L463.725 507.074Z"/><path fill="#2EB463" transform="matrix(1.52675 0 0 1.52647 -218.325 -509.841)" d="M672.321 471.141C677.359 471.199 682.396 471.176 687.432 471.072C687.858 498.08 687.532 525.98 687.534 553.059C678.228 553.1 668.499 553.287 659.231 552.977C658.504 549.593 657.356 545.405 656.369 542.076C650.25 521.439 646.19 499.56 640.043 479.043C639.338 486.342 639.599 498.684 639.593 506.379L639.553 553.027C634.54 553.04 629.49 552.988 624.489 553.287L624.367 471.054L652.715 471.065C654.928 482.377 659.978 498.069 662.711 509.723C664.246 516.269 669.989 538.6 672.299 543.52C672.586 529.306 672.204 514.558 672.289 500.275C672.346 490.534 671.78 480.975 672.321 471.141Z"/><path fill="#2EB463" transform="matrix(1.52675 0 0 1.52647 -218.325 -509.841)" d="M812.77 471.021C817.554 471.548 822.745 471.261 827.534 470.986L827.599 553.061C822.584 553.106 817.57 553.205 812.558 553.356C812.499 550.625 812.605 547.986 812.697 545.261C804.086 555.2 796.249 556.444 783.836 553.353C780.949 552.306 778.282 550.734 775.967 548.717C757.569 532.419 765.12 491.314 793.669 492.833C802.289 493.292 806.553 495.281 812.491 501.267C812.282 492.773 812.248 479.342 812.77 471.021ZM798.614 541.35C803.511 540.152 807.011 538.892 809.709 534.235C816.488 522.532 810.97 505.258 795.652 506.098C775.627 509.39 775.664 540.809 798.614 541.35Z"/><path fill="#13182A" transform="matrix(1.52675 0 0 1.52647 -218.325 -509.841)" d="M576.055 493.116C592.936 490.404 608.84 501.833 611.652 518.698C614.464 535.564 603.13 551.535 586.281 554.447C569.291 557.383 553.157 545.932 550.321 528.925C547.485 511.918 559.031 495.852 576.055 493.116ZM584.938 545.947C587.525 545.279 589.624 544.73 591.98 543.367C605.862 535.335 604.939 510.643 590.539 503.539C585.537 501.071 581.547 501.015 576.071 501.622C550.004 510.33 556.886 549.558 584.938 545.947Z"/><path fill="#2EB463" transform="matrix(1.52675 0 0 1.52647 -218.325 -509.841)" d="M724.341 493.134C725.407 493.03 726.477 492.968 727.548 492.949C740.048 492.626 750.399 497.023 755.505 509.277C758.021 515.317 757.704 521.14 757.795 527.522C743.814 527.902 728.826 527.475 714.638 527.64C715.733 531.673 717.041 535.891 720.587 538.366C730.121 545.021 738.036 540.963 744.258 533.207L748.906 535.532C751.827 536.898 754.174 538.182 756.99 539.757C748.007 555.866 727.499 558.998 712.312 549.861C697.843 541.155 695.738 517.525 705.189 504.577C709.991 497.998 716.228 494.5 724.341 493.134ZM714.826 517.03C720.925 516.869 727.025 516.825 733.125 516.897L743.438 516.765C740.641 508.38 736.487 505.151 727.32 505.615C719.573 507.443 717.677 509.763 714.826 517.03Z"/><path fill="#13182A" transform="matrix(1.52675 0 0 1.52647 -218.325 -509.841)" d="M526.329 494.707C529.507 494.985 532.598 494.754 535.788 494.62C536.297 511.731 536.278 535.922 535.724 552.977L526.098 552.997L526.058 514.566C526.06 509.576 525.75 499.159 526.329 494.707Z"/><path fill="#41A05F" transform="matrix(1.52675 0 0 1.52647 -218.325 -509.841)" d="M304.621 510.47C308.551 512.142 311.368 515.869 315.223 517.515C315.223 525.439 315.178 533.362 315.089 541.286C312.73 539.914 306.641 532.135 305.002 529.67C304.335 525.002 304.587 515.58 304.621 510.47Z"/><path fill="#13182A" transform="matrix(1.52675 0 0 1.52647 -218.325 -509.841)" d="M529.356 471.221C532.018 470.727 534.739 471.712 536.467 473.797C538.195 475.882 538.659 478.738 537.679 481.262C536.699 483.787 534.43 485.582 531.748 485.956C527.73 486.515 524 483.762 523.35 479.757C522.7 475.753 525.367 471.962 529.356 471.221Z"/><path fill="#13182A" transform="matrix(1.52675 0 0 1.52647 -218.325 -509.841)" d="M837.155 583.489C846.635 583.599 847.552 595.431 840.044 598.911C829.982 598.918 829.614 586.672 837.155 583.489ZM840.135 596.765C843.915 592.593 843.981 585.639 836.872 585.908C833.654 590.224 832.902 596.707 840.135 596.765Z"/><path fill="#13182A" transform="matrix(1.52675 0 0 1.52647 -218.325 -509.841)" d="M476.874 584.111C482.749 583.732 486.325 585.666 486.153 592.765C486.091 595.341 484.652 597.273 482.568 598.808C479.587 599.062 477.455 599.295 475.267 596.89C473.755 595.226 473.023 592.997 473.252 590.76C473.572 587.55 474.465 586.05 476.874 584.111ZM481.036 597.042C485.026 593.408 484.955 585.617 478.002 585.937C474.659 590.199 474.295 596.364 481.036 597.042Z"/><path fill="#13182A" transform="matrix(1.52675 0 0 1.52647 -218.325 -509.841)" d="M622.006 584.166C623.849 583.997 625.701 583.93 627.552 583.965C636.021 584.151 638.656 592.94 631.725 598.421C629.259 598.628 626.512 599.095 624.208 598.438C622.944 596.416 625.82 591.177 624.264 586.335L622.349 585.422L622.006 584.166ZM631.699 595.56C633.464 590.31 633.651 586.353 627 585.848C626.932 588.86 626.422 593.257 627.335 595.813C629.021 597.148 629.869 596.413 631.699 595.56Z"/><path fill="#13182A" transform="matrix(1.52675 0 0 1.52647 -218.325 -509.841)" d="M776.59 584.177C780.646 583.927 786.806 582.908 788.744 587.215C788.593 589.801 788.28 589.176 787.122 591.238C787.625 592.283 787.853 592.795 788.523 593.749L788.984 594.396C788.979 596.094 788.53 596.614 787.726 598.098C785.178 598.743 779.906 598.554 777.228 598.33L776.92 597.468C777.487 596.85 778.066 596.33 778.711 595.797C778.678 593.526 778.73 588.698 778.225 586.377C777.807 584.457 777.37 587.633 776.59 584.177Z"/><path fill="#06070C" transform="matrix(1.52675 0 0 1.52647 -218.325 -509.841)" d="M579.509 595.613C582.06 592.313 583.115 584.642 586.492 583.526C587.396 584.842 587.932 597.203 586.726 598.72L585.97 598.643C584.771 596.954 585.135 594.812 585.034 592.375C584.954 591.115 585.009 591.476 584.634 590.288C583.42 591.364 582.287 596.255 581.217 598.565C576.557 599.186 575.255 588.851 574.4 585.203C574.521 587.626 574.671 596.319 574.233 598.491L573.467 598.841C571.36 596.543 572.036 587.634 572.016 584.052C573.277 584.172 574.436 584.08 575.424 584.675C578.169 586.331 578.845 592.399 579.509 595.613Z"/><path fill="#06070C" transform="matrix(1.52675 0 0 1.52647 -218.325 -509.841)" d="M759.576 584.034L762.766 584.033C765.004 584.017 769.234 583.925 769.745 586.952C770.2 589.653 770.165 596.514 769.115 598.868L768.44 598.885L767.66 597.398C767.684 593.898 767.877 594.452 765.269 592.378C759.379 591.961 763.849 596.629 761.011 598.94L760.031 598.765C759.152 597.105 759.571 586.664 759.576 584.034Z"/><path fill="#13182A" transform="matrix(1.52675 0 0 1.52647 -218.325 -509.841)" d="M799.695 583.722L801.696 584.141C803.567 586.224 807.029 595.429 807.185 598.345L806.158 598.88C804.645 598.08 804.664 597.206 803.716 595.294L802.874 595.476L798.313 595.196L797.017 598.066C795.831 598.949 796.494 598.64 794.864 598.675C794.525 596.819 798.641 586.032 799.695 583.722Z"/><path fill="#13182A" transform="matrix(1.52675 0 0 1.52647 -218.325 -509.841)" d="M701.292 583.625C702.029 583.802 703.358 584.051 703.75 584.696C705.438 587.47 708.749 595.201 708.282 598.209C705.83 599.521 707.24 595.806 703.248 594.712C698.252 595.317 701.223 595.784 696.983 598.495C696.269 595.455 699.932 586.627 701.292 583.625Z"/><path fill="#13182A" transform="matrix(1.52675 0 0 1.52647 -218.325 -509.841)" d="M599.524 583.632C600.913 583.969 601.267 583.746 602.075 584.944C603.287 586.738 607.03 597.354 606.831 598.715L606 598.9C604.127 597.947 604.576 597.775 603.461 595.283L602.567 594.967C600.699 594.929 599.438 594.778 597.63 595.295C596.833 597.065 596.614 598.476 594.75 598.989L594.27 598.447C594.414 595.936 598.371 586.657 599.524 583.632Z"/><path fill="#06070C" transform="matrix(1.52675 0 0 1.52647 -218.325 -509.841)" d="M822.265 594.833C822.809 591.613 822.561 586.53 824.145 584.101C825.566 586.509 824.846 595.925 824.31 598.852L822.511 598.864C819.847 597.334 818.356 591.41 816.362 587.833L816.01 587.213C815.962 589.924 816.718 597.303 814.855 598.762L814.248 598.201C813.701 595.268 814.021 587.536 813.882 583.773L816.292 584.009C818.619 585.216 820.22 591.129 821.942 594.256L822.265 594.833Z"/><path fill="#13182A" transform="matrix(1.52675 0 0 1.52647 -218.325 -509.841)" d="M654.788 584.028C655.597 583.98 656.985 583.885 657.76 583.933C659.996 584.094 662.068 585.165 663.493 586.896C663.688 588.763 663.829 587.868 662.879 589.639C660.559 589.31 660.623 585.782 656.677 586.011C647.949 591.299 657.282 598.827 660.796 595.939C660.99 594.646 661.068 594.639 660.794 593.385C659.413 593.27 657.65 593.399 657.045 592.054C658.922 590.976 661.056 590.907 663.301 590.484L663.302 598.331C658.563 598.754 651.563 599.818 651.155 591.554C651.015 588.713 652.664 585.953 654.788 584.028Z"/><path fill="#13182A" transform="matrix(1.52675 0 0 1.52647 -218.325 -509.841)" d="M495.75 584.015C498.742 583.908 500.996 583.495 502.648 586.481C502.719 588.401 502.996 587.601 502.068 589.038C500.31 587.209 499.217 585.779 496.786 585.501C495.533 586.548 496.087 585.967 495.46 587.758C497.374 590.331 510.214 592.511 500.862 598.773C497.697 599.053 495.863 598.877 493.421 596.838C492.676 595.045 492.796 595.957 493.115 593.992C494.831 593.286 495.577 597.04 499.964 596.57C501.18 595.482 500.822 596.152 501.34 594.701C499.098 591.716 486.741 589.873 495.75 584.015Z"/><path fill="#06070C" transform="matrix(1.52675 0 0 1.52647 -218.325 -509.841)" d="M523.921 584.001C526.94 583.956 528.724 583.628 530.912 585.984C531.432 587.946 531.505 587.026 530.772 588.846L530.092 588.881C528.223 586.736 525.517 583.621 523.374 587.825C525.449 590.609 537.929 592.585 528.619 598.955C524.534 598.961 521.824 598.682 521 594.308C522.477 593.746 524.126 597.032 527.995 596.456C529.397 595.315 529.104 596.006 529.349 594.542C526.763 591.378 520.684 592.116 520.903 587.255C522.041 585.195 521.952 585.289 523.921 584.001Z"/><path fill="#13182A" transform="matrix(1.52675 0 0 1.52647 -218.325 -509.841)" d="M741.336 583.623L742.827 583.957C745.989 587.098 739.756 599.436 748.813 596.067C751.181 593.658 749.781 588.744 750.284 584.669L751.265 583.919L752.26 584.236L752.517 585.375C752.523 587.687 753.155 595.609 751.958 596.504C738.876 606.289 741.201 587.198 741.336 583.623Z"/><path fill="#13182A" transform="matrix(1.52675 0 0 1.52647 -218.325 -509.841)" d="M439.102 584.017C441.595 584.002 447.278 583.477 448.85 584.936C447.627 586.828 444.788 585.311 441.664 586.136C440.699 592.869 445.357 588.753 448.129 591.49C445.945 592.04 443.77 591.978 441.506 592.048C441.381 593.989 441.036 594.85 441.769 596.449C444.56 596.215 446.07 596.423 448.633 597.509L448.546 598.024C445.522 598.667 442.137 598.564 439.021 598.607C439.203 593.859 439.108 588.792 439.102 584.017Z"/><path fill="#13182A" transform="matrix(1.52675 0 0 1.52647 -218.325 -509.841)" d="M555.486 584.078C557.972 584.059 563.555 583.661 565.336 584.674L565.58 585.58C564.397 586.263 560.529 585.889 558.457 586.078C557.72 587.147 558.079 587.997 558.145 589.641C559.311 590.451 564.619 590.724 567.206 591.7C563.995 591.907 560.789 592.199 557.593 592.575L558.068 596.256C560.341 597.521 563.976 595.611 565.656 597.752L565.21 598.473C563.054 598.761 558.163 598.671 555.755 598.681C555.927 593.929 555.712 588.829 555.486 584.078Z"/><path fill="#06070C" transform="matrix(1.52675 0 0 1.52647 -218.325 -509.841)" d="M459.432 583.97C462.998 583.95 466.155 584.703 466.724 588.88C464.891 589.63 462.887 586.142 460.68 585.955C456.513 585.601 456.845 593.656 458.851 595.925C461.036 596.777 460.907 596.777 463.22 596.455C464.112 594.957 464.472 593.701 466.337 593.993L466.574 595.109C466.157 596.273 465.663 597.191 464.533 597.844C455.426 603.113 451.146 588.345 459.432 583.97Z"/><path fill="#13182A" transform="matrix(1.52675 0 0 1.52647 -218.325 -509.841)" d="M537.432 584.168C539.908 584.112 546.677 583.774 548.632 584.267L549.065 585.096C548.065 586.658 546.873 586.849 545.201 586.652C544.258 587.683 544.233 593.587 544.141 595.377C544.111 596.737 544.226 597.98 543.15 598.844C541.909 596.79 542.019 589.738 541.93 586.874C540.832 585.769 539.591 586.135 537.477 585.904L537.096 585.257L537.432 584.168Z"/><path fill="#13182A" transform="matrix(1.52675 0 0 1.52647 -218.325 -509.841)" d="M680.018 584.177C682.341 583.951 689.998 583.82 692.057 584.429L692.233 585.169C690.019 586.926 689.405 584.947 687.569 586.431L687.05 592.513C687.105 594.508 687.608 597.497 685.994 598.746L685.338 598.339C684.529 595.188 685.35 590.749 684.884 586.763C683.382 585.189 683.01 586.817 680.352 585.648L680.018 584.177Z"/><path fill="#13182A" transform="matrix(1.52675 0 0 1.52647 -218.325 -509.841)" d="M717.059 583.271C718.454 585.891 717.99 592.955 717.964 596.34C719.145 596.345 720.326 596.366 721.507 596.404C723.447 596.486 724.111 596.412 725.166 597.582L724.438 598.516C721.259 598.51 718.58 598.38 715.459 599.027C715.469 594.502 714.643 586.519 717.059 583.271Z"/><path fill="#06070C" transform="matrix(1.52675 0 0 1.52647 -218.325 -509.841)" d="M511.303 583.613L512.68 584.094C514.116 586.201 513.848 596.7 512.888 598.997L511.868 598.687C510.394 596.508 511.082 586.603 511.303 583.613Z"/><path fill="#06070C" transform="matrix(1.52675 0 0 1.52647 -218.325 -509.841)" d="M642.926 583.309C643.42 583.671 644.164 584.113 644.171 584.816C644.203 588.266 644.664 596.749 643.276 599.626C641.331 597.132 641.013 585.788 642.926 583.309Z"/><path fill="#06070C" transform="matrix(1.52675 0 0 1.52647 -218.325 -509.841)" d="M671.373 583.598L672.544 584.172C673.728 586.272 673.207 596.782 672.56 599.237C669.864 597.641 670.914 586.617 671.373 583.598Z"/><path fill="#FAFCF9" fill-opacity="0.035294119" transform="matrix(1.52675 0 0 1.52647 -218.325 -509.841)" d="M284.651 442.089C281.041 438.973 278.067 436.755 274.516 433.354L274.709 433.187C278.843 435.791 281.981 437.938 285.908 440.846L284.651 442.089Z"/><path fill="#FAFCF9" fill-opacity="0.043137256" transform="matrix(1.52675 0 0 1.52647 -218.325 -509.841)" d="M355.351 401.943C357.333 400.859 359.927 399.333 361.919 398.411L362.604 398.688L362.821 398.035L363.374 398.072L363.415 397.941L362.663 398.159L362.688 398.712L362.291 398.329L362.175 399.121C360.089 400.616 357.992 402.095 355.882 403.557L355.351 401.943Z"/><path fill="#06070C" fill-opacity="0.92941177" transform="matrix(1.52675 0 0 1.52647 -218.325 -509.841)" d="M441.918 587.154C443.783 587.022 446.573 586.881 448.157 587.829L447.787 588.752C445.624 588.654 444.609 589.217 442.365 588.408L441.918 587.154Z"/></g></svg>